<svg version="1.1" id="Layer_1" xmlns="http://www.w3.org/2000/svg" xmlns:xlink="http://www.w3.org/1999/xlink" x="0px" y="0px"
 viewBox="0 0 640 640" enable-background="new 0 0 640 640" xml:space="preserve">

<path fill="#209B97" opacity="1.000000" stroke="none" 
	d="
M345.993134,560.905518 
	C332.651093,566.694336 323.461365,560.941589 322.152710,545.717773 
	C320.306244,524.237732 316.385651,503.128906 310.070435,482.558777 
	C299.780548,449.042389 282.976440,419.309814 257.073944,394.306030 
	C257.455566,387.547668 257.707825,381.465363 258.772583,375.528809 
	C259.061676,373.917114 261.673187,371.818054 263.447693,371.568176 
	C266.954163,371.074463 270.620453,371.715790 274.435303,371.897827 
	C274.649963,371.907806 275.077789,371.948639 275.191132,372.142700 
	C275.496399,372.581940 275.742828,372.744476 276.181885,373.016907 
	C276.692535,373.484497 277.065033,373.759552 277.437500,374.034637 
	C304.535248,400.113922 322.791107,431.730164 335.540985,466.797424 
	C335.879883,467.729553 336.328949,468.622528 336.750336,469.522675 
	C336.811005,469.652283 337.005798,469.719147 337.814667,470.303650 
	C345.220551,452.220428 353.630554,434.811584 366.281708,419.283447 
	C368.538727,420.314392 370.158539,421.544067 371.821411,422.712402 
	C373.958862,424.214142 376.046936,425.817078 378.318939,427.085022 
	C379.719391,427.866547 381.626495,427.790009 382.951935,428.646698 
	C386.706970,431.073792 389.357880,429.925720 391.753387,426.638519 
	C393.544159,424.181122 395.572662,421.951813 399.147919,423.119812 
	C391.161438,434.820648 383.065796,446.449371 375.259247,458.269043 
	C373.098846,461.540070 371.797943,465.378784 369.824829,469.606506 
	C369.348358,470.991180 369.149719,471.726379 368.951050,472.461609 
	C368.951050,472.461609 369.006165,472.471405 368.724792,472.723877 
	C366.593536,478.428650 364.743683,483.880981 362.893799,489.333282 
	C362.893799,489.333282 362.891266,489.427002 362.695496,489.711945 
	C362.344513,490.725769 362.189301,491.454651 362.034088,492.183533 
	C362.034088,492.183533 361.937958,492.334473 361.749573,492.737122 
	C361.360199,494.104828 361.159180,495.069916 360.958130,496.035004 
	C360.958130,496.035004 361.014252,495.997223 360.767334,496.261780 
	C359.270355,501.325012 357.631042,506.060638 356.842468,510.933960 
	C354.362732,526.258850 352.202667,541.635498 349.918823,556.992126 
	C349.918823,556.992126 349.986938,556.994995 349.725342,557.037537 
	C349.289185,557.387329 349.114655,557.694641 348.940125,558.001953 
	C348.940125,558.001953 349.004791,558.010437 348.761658,558.079224 
	C348.327942,558.434387 348.137390,558.720642 347.946838,559.006897 
	C347.946808,559.006897 348.012085,559.012817 347.770294,559.085876 
	C347.334839,559.441833 347.141174,559.724731 346.947449,560.007568 
	C346.947449,560.007568 347.012787,560.012512 346.768433,560.084106 
	C346.329742,560.438354 346.135406,560.720947 345.941071,561.003540 
	C345.941071,561.003540 346.021515,560.946045 345.993134,560.905518 
z"/>
<path fill="#1D9A95" opacity="1.000000" stroke="none" 
	d="
M399.427612,422.939148 
	C395.572662,421.951813 393.544159,424.181122 391.753387,426.638519 
	C389.357880,429.925720 386.706970,431.073792 382.951935,428.646698 
	C381.626495,427.790009 379.719391,427.866547 378.318939,427.085022 
	C376.046936,425.817078 373.958862,424.214142 371.821411,422.712402 
	C370.158539,421.544067 368.538727,420.314392 366.543701,419.062012 
	C380.354401,398.802429 398.802917,383.377991 419.998169,371.077759 
	C424.581085,368.418121 429.428192,366.213745 434.736633,363.970764 
	C439.036346,368.642548 442.855591,373.063293 446.441223,377.666016 
	C450.142181,382.416748 449.821442,382.705048 444.199677,385.113159 
	C440.282806,386.790955 435.343475,387.981567 436.150269,394.081299 
	C434.538025,395.198730 432.925751,396.316193 431.125122,397.701050 
	C430.936737,397.968475 430.973785,398.010345 430.726135,398.059814 
	C430.296204,398.400146 430.113983,398.690979 429.931763,398.981812 
	C429.931763,398.981812 429.996765,398.996246 429.694580,398.960663 
	C428.916687,399.279175 428.440979,399.633270 427.965302,399.987396 
	C427.965302,399.987396 428.010498,400.009796 427.701904,400.059845 
	C426.588959,400.737946 425.784607,401.366028 424.980225,401.994080 
	C424.980225,401.994080 425.007385,402.015045 424.759552,402.089508 
	C424.319702,402.443085 424.127686,402.722198 423.935699,403.001312 
	C423.935699,403.001312 424.007263,403.016144 423.707825,403.009125 
	C422.904633,403.345642 422.400879,403.689148 421.897095,404.032684 
	C414.500549,410.274628 407.103943,416.516541 399.427612,422.939148 
z"/>
<path fill="#209C97" opacity="1.000000" stroke="none" 
	d="
M436.495636,394.001801 
	C435.343475,387.981567 440.282806,386.790955 444.199677,385.113159 
	C449.821442,382.705048 450.142181,382.416748 446.441223,377.666016 
	C442.855591,373.063293 439.036346,368.642548 435.083984,363.864838 
	C443.989441,360.234619 452.989197,356.397888 462.313354,353.670288 
	C470.877563,351.165009 477.233704,354.085083 480.613953,360.607086 
	C483.938080,367.020782 482.147125,373.422180 475.158813,379.680511 
	C462.256348,384.608704 449.548676,389.265472 436.495636,394.001801 
z"/>
<path fill="#209C97" opacity="1.000000" stroke="none" 
	d="
M273.046539,248.506927 
	C276.463593,244.736771 280.214111,241.432220 283.117462,237.501862 
	C302.097321,211.808197 312.361511,182.516190 318.024506,151.404510 
	C318.665619,147.882324 318.703186,144.250259 318.956299,140.344254 
	C319.287598,136.952576 319.683197,133.885803 320.266968,130.113861 
	C321.288696,126.279007 322.122192,123.149330 323.280273,119.889610 
	C326.858276,116.883224 330.447266,114.298744 333.273315,111.050537 
	C336.253052,107.625748 338.504486,103.567345 341.427551,99.798935 
	C342.254059,99.834175 342.727173,99.856224 343.200256,99.878281 
	C343.200256,99.878281 343.417236,100.008484 343.784882,100.249146 
	C344.774963,100.682838 345.397369,100.875885 346.019806,101.068924 
	C346.019806,101.068924 345.997284,100.985817 346.039429,101.257828 
	C346.389008,101.714569 346.696381,101.899292 347.003784,102.084015 
	C347.003784,102.084015 347.002472,101.997490 347.066711,102.242966 
	C347.422241,102.682411 347.713531,102.876389 348.004822,103.070366 
	C348.004822,103.070366 348.004639,102.995491 348.074890,103.238243 
	C348.431274,103.677765 348.717438,103.874535 349.003571,104.071297 
	C349.003571,104.071297 349.013184,103.991241 349.075531,104.255936 
	C349.412048,104.785103 349.686249,105.049576 349.960419,105.314049 
	C349.960419,105.314049 350.056824,105.677147 350.210632,106.057411 
	C350.500549,106.721863 350.709076,106.935150 350.990082,107.077545 
	C350.990082,107.077545 351.003967,106.995697 351.012329,107.406563 
	C352.635071,119.294647 353.886566,130.838333 355.972687,142.229156 
	C357.811890,152.271790 360.583130,162.143738 362.942780,172.091064 
	C362.942780,172.091064 363.001556,172.016022 362.929321,172.351166 
	C363.224213,173.813599 363.591278,174.940872 363.958374,176.068161 
	C363.958374,176.068161 363.992157,176.002975 363.930786,176.392517 
	C364.892151,179.876312 365.914825,182.970551 366.937500,186.064774 
	C366.937531,186.064774 366.977234,186.015991 366.917328,186.376373 
	C367.544922,188.524246 368.232452,190.311737 368.919983,192.099228 
	C368.919983,192.099228 368.986237,192.040573 368.929230,192.347290 
	C369.238495,193.456390 369.604797,194.258789 369.971069,195.061188 
	C369.971069,195.061188 370.009186,195.004410 369.995056,195.347672 
	C370.313232,196.315125 370.645599,196.939316 370.977936,197.563507 
	C370.977936,197.563507 370.912598,197.621979 371.000000,198.026947 
	C371.384491,198.808426 371.681580,199.184952 371.978668,199.561478 
	C377.188019,209.451111 381.861237,219.676773 387.780792,229.121262 
	C392.300659,236.332626 398.398926,242.554657 403.833313,249.885651 
	C400.703827,257.768097 399.467224,264.792633 404.681061,271.814972 
	C407.612274,275.762878 409.792175,280.260559 412.569183,284.334259 
	C414.111694,286.597015 415.965271,288.766602 418.074738,290.494690 
	C420.873993,292.787750 423.643707,294.845825 422.850647,299.041412 
	C415.079803,294.087830 406.716248,289.847900 399.683044,284.006195 
	C390.155853,276.092987 381.648712,266.951660 372.334900,257.896149 
	C371.638824,257.010193 371.311859,256.565247 370.984894,256.120300 
	C370.984894,256.120300 370.980408,256.025116 370.853271,255.785614 
	C370.540680,255.281311 370.299530,255.084808 370.002716,254.956589 
	C368.727173,253.236572 367.451660,251.516556 365.871704,249.238251 
	C364.729187,247.769806 363.891113,246.859634 362.962708,245.625397 
	C361.612274,243.505249 360.352112,241.709152 359.028503,239.584915 
	C358.002960,237.815262 357.040833,236.373749 356.008209,234.572205 
	C353.279877,229.472900 352.884460,223.491699 348.043457,219.553558 
	C344.691620,210.982086 341.390198,202.780228 338.088806,194.578369 
	C337.644470,194.573883 337.200165,194.569397 336.755829,194.564911 
	C334.120636,201.673019 331.485443,208.781128 328.644653,216.088226 
	C328.254669,216.823730 328.070251,217.360214 327.672607,218.091248 
	C327.269684,218.824234 327.079956,219.362686 326.678925,220.101410 
	C326.292664,220.850128 326.117706,221.398590 325.735291,222.151215 
	C325.351746,222.903122 325.175690,223.450882 324.798889,224.205765 
	C324.407715,224.950470 324.217285,225.488052 323.820496,226.221283 
	C323.400818,226.936218 323.187500,227.455490 322.756470,228.159546 
	C322.323059,228.866562 322.107391,229.388779 321.643951,230.122452 
	C320.582275,231.875397 319.768311,233.416885 318.717743,235.198853 
	C315.265076,240.578842 312.049011,245.718338 308.571381,251.058533 
	C306.808075,253.447220 305.306335,255.635208 303.536560,258.020386 
	C295.127441,266.755859 286.986328,275.294159 278.630920,283.948853 
	C278.149109,284.264832 277.949097,284.517792 277.512756,284.967285 
	C273.781830,288.046326 270.354767,290.982208 266.701111,294.011810 
	C266.182129,294.275940 265.964020,294.514343 265.516785,294.885315 
	C264.462830,295.618347 263.712311,296.286774 262.639832,297.075439 
	C259.192688,299.440552 256.067444,301.685455 252.589828,303.981812 
	C247.106461,306.969177 241.975479,309.905090 236.622986,312.940399 
	C236.129807,313.234528 235.933258,313.487579 235.441772,313.833618 
	C229.939178,316.093811 224.806641,318.319397 219.309753,320.631836 
	C215.423691,322.104309 211.851410,323.375885 208.394608,324.907928 
	C205.003372,326.410858 201.729584,328.178772 198.105789,329.802124 
	C195.431320,329.443634 194.655640,328.252869 196.699356,326.666901 
	C198.616898,325.178864 200.832581,323.930817 203.103683,323.069000 
	C210.546097,320.245026 218.374313,318.258545 225.478027,314.775085 
	C231.759811,311.694733 237.392410,307.203705 243.022400,302.952454 
	C244.181076,302.077545 244.991959,298.992554 244.344437,297.820557 
	C242.742493,294.921204 240.202896,292.539917 238.862549,290.935150 
	C235.323730,292.036682 232.063919,294.250275 229.749863,293.509491 
	C225.580719,292.174866 222.110703,292.641235 218.173843,293.785004 
	C215.927429,294.437622 213.292923,293.754425 210.833160,293.672729 
	C221.646393,287.748108 232.459625,281.823517 243.552673,276.105042 
	C244.217590,277.674469 244.255157,279.957733 245.042831,280.255280 
	C251.291000,282.615570 251.800339,287.107819 250.750595,292.823151 
	C250.080673,296.470642 252.599655,297.226898 255.449081,295.866028 
	C257.010010,295.120544 258.910187,293.762329 259.372986,292.279510 
	C260.993591,287.087158 263.766357,283.497925 269.369202,282.440948 
	C270.016144,282.318909 270.436676,280.996429 270.962158,280.230499 
	C270.033234,279.762329 269.144501,279.169830 268.166412,278.853790 
	C266.510681,278.318665 264.222656,278.499298 263.214417,277.426270 
	C259.720154,273.707520 255.872803,272.662872 251.021103,274.056244 
	C249.729614,274.427155 248.129669,273.723999 246.671341,273.513977 
	C251.802261,268.934540 256.933167,264.355103 262.138733,259.433167 
	C262.213409,259.090698 262.106415,258.981659 262.323853,258.954773 
	C262.789764,258.647858 263.038239,258.367859 263.286713,258.087860 
	C265.652618,255.886139 268.018555,253.684418 270.842346,251.089325 
	C271.779846,250.116714 272.259491,249.537521 272.739105,248.958313 
	C272.739105,248.958313 272.988190,248.683121 273.046539,248.506927 
z"/>
<path fill="#1D9A95" opacity="1.000000" stroke="none" 
	d="
M422.959412,299.295288 
	C423.643707,294.845825 420.873993,292.787750 418.074738,290.494690 
	C415.965271,288.766602 414.111694,286.597015 412.569183,284.334259 
	C409.792175,280.260559 407.612274,275.762878 404.681061,271.814972 
	C399.467224,264.792633 400.703827,257.768097 403.979187,250.182281 
	C422.745361,268.313660 444.744598,280.728729 470.384094,286.843231 
	C479.455963,289.006714 483.621307,296.228333 481.598785,304.480255 
	C479.908539,311.376465 471.391357,317.438416 465.018890,315.782959 
	C458.935120,314.202484 452.955872,312.149323 447.045410,309.989899 
	C439.769287,307.331543 432.611969,304.348022 425.074890,301.189209 
	C424.527008,300.817993 424.305145,300.774994 424.080811,300.744354 
	C423.743256,300.345947 423.405701,299.947540 422.959412,299.295288 
z"/>
<path fill="#209C97" opacity="1.000000" stroke="none" 
	d="
M424.294128,300.825195 
	C424.305145,300.774994 424.527008,300.817993 424.854736,300.902557 
	C424.963043,300.931732 424.507477,300.906067 424.294128,300.825195 
z"/>
<path fill="#1D9A95" opacity="1.000000" stroke="none" 
	d="
M242.937836,438.092957 
	C225.129166,456.244995 207.320496,474.397064 189.071487,492.912384 
	C188.400024,493.523926 188.168900,493.772186 187.937759,494.020447 
	C187.937759,494.020447 188.019363,494.014648 187.761581,494.066650 
	C187.313080,494.410248 187.122360,494.701843 186.931641,494.993439 
	C186.931656,494.993439 187.002563,495.004944 186.703064,494.984680 
	C185.915741,495.304413 185.427917,495.644440 184.940094,495.984436 
	C184.940094,495.984467 185.008118,495.937744 184.985687,495.903320 
	C179.585464,497.628448 174.537613,497.468170 169.916458,493.676514 
	C163.232941,488.192688 161.969543,480.190063 167.976868,474.020111 
	C185.272415,456.256317 202.825638,438.737061 220.555878,421.406433 
	C226.286377,415.805115 232.327850,415.383545 237.857956,418.792633 
	C244.029861,422.597351 245.793610,427.702148 243.804108,436.540161 
	C243.759033,436.947479 243.872513,437.040771 243.670944,437.097504 
	C243.292191,437.467163 243.115021,437.780060 242.937836,438.092957 
z"/>
<path fill="#1D9A95" opacity="1.000000" stroke="none" 
	d="
M210.477386,293.761475 
	C213.292923,293.754425 215.927429,294.437622 218.173843,293.785004 
	C222.110703,292.641235 225.580719,292.174866 229.749863,293.509491 
	C232.063919,294.250275 235.323730,292.036682 238.862549,290.935150 
	C240.202896,292.539917 242.742493,294.921204 244.344437,297.820557 
	C244.991959,298.992554 244.181076,302.077545 243.022400,302.952454 
	C237.392410,307.203705 231.759811,311.694733 225.478027,314.775085 
	C218.374313,318.258545 210.546097,320.245026 203.103683,323.069000 
	C200.832581,323.930817 198.616898,325.178864 196.699356,326.666901 
	C194.655640,328.252869 195.431320,329.443634 198.445221,329.862091 
	C205.380310,332.432831 211.776093,334.694672 217.949890,337.453339 
	C225.770920,340.947968 233.411484,344.846466 240.997116,348.921265 
	C237.767303,354.563721 234.766815,359.916626 231.497009,365.099640 
	C230.787369,366.224518 229.134262,366.778076 227.875320,367.526886 
	C226.042313,368.617157 224.172714,369.645905 222.318741,370.700928 
	C201.151718,360.056183 178.676529,353.429718 155.082825,348.436432 
	C153.815521,345.760651 152.994598,343.586670 152.116531,341.436005 
	C147.236191,329.482422 136.522293,327.131134 126.786201,335.444458 
	C124.713142,337.214600 120.806046,338.584167 118.416161,337.874481 
	C113.343552,336.368134 108.713348,333.372009 103.901764,330.986664 
	C102.828484,323.094788 107.243584,316.543091 115.476868,315.137878 
	C123.828613,313.712433 132.380768,313.473755 140.743378,312.097015 
	C164.428879,308.197510 187.825287,303.083862 210.477386,293.761475 
z"/>
<path fill="#209C97" opacity="1.000000" stroke="none" 
	d="
M222.596954,370.895447 
	C224.172714,369.645905 226.042313,368.617157 227.875320,367.526886 
	C229.134262,366.778076 230.787369,366.224518 231.497009,365.099640 
	C234.766815,359.916626 237.767303,354.563721 241.324554,349.057617 
	C244.840759,350.582245 247.896774,352.320984 251.141769,354.298920 
	C252.212006,355.034637 253.093277,355.531128 254.193726,356.276947 
	C257.274750,358.374481 260.136627,360.222687 263.002747,362.035339 
	C263.006958,361.999756 262.935852,361.991241 263.055542,362.216217 
	C263.464996,362.608704 263.754761,362.776215 264.187958,363.125214 
	C264.727631,363.532867 265.123840,363.759033 265.724030,364.224854 
	C266.293518,364.658539 266.659027,364.852600 267.010498,365.006653 
	C266.996429,364.966705 266.916046,364.993408 266.986938,365.326721 
	C268.693604,366.802368 270.329346,367.944702 271.965118,369.087036 
	C271.965118,369.087036 271.996979,369.026245 272.062439,369.260101 
	C272.422943,369.678619 272.717957,369.863281 273.012970,370.047943 
	C273.012970,370.047943 273.016693,369.981903 273.097900,370.223267 
	C273.465973,370.662292 273.752777,370.859955 274.039581,371.057648 
	C274.039581,371.057648 274.143036,371.470337 274.181824,371.679077 
	C270.620453,371.715790 266.954163,371.074463 263.447693,371.568176 
	C261.673187,371.818054 259.061676,373.917114 258.772583,375.528809 
	C257.707825,381.465363 257.455566,387.547668 256.880737,394.058502 
	C245.534225,386.724579 234.204697,378.907257 222.596954,370.895447 
z"/>
<path fill="#209C97" opacity="1.000000" stroke="none" 
	d="
M103.897842,331.367126 
	C108.713348,333.372009 113.343552,336.368134 118.416161,337.874481 
	C120.806046,338.584167 124.713142,337.214600 126.786201,335.444458 
	C136.522293,327.131134 147.236191,329.482422 152.116531,341.436005 
	C152.994598,343.586670 153.815521,345.760651 154.737640,348.317352 
	C141.697403,346.829041 128.568970,345.034729 115.473076,343.028015 
	C109.064461,342.046051 105.104080,338.227631 103.897842,331.367126 
z"/>
<path fill="#1D9A95" opacity="1.000000" stroke="none" 
	d="
M246.414383,273.648560 
	C248.129669,273.723999 249.729614,274.427155 251.021103,274.056244 
	C255.872803,272.662872 259.720154,273.707520 263.214417,277.426270 
	C264.222656,278.499298 266.510681,278.318665 268.166412,278.853790 
	C269.144501,279.169830 270.033234,279.762329 270.962158,280.230499 
	C270.436676,280.996429 270.016144,282.318909 269.369202,282.440948 
	C263.766357,283.497925 260.993591,287.087158 259.372986,292.279510 
	C258.910187,293.762329 257.010010,295.120544 255.449081,295.866028 
	C252.599655,297.226898 250.080673,296.470642 250.750595,292.823151 
	C251.800339,287.107819 251.291000,282.615570 245.042831,280.255280 
	C244.255157,279.957733 244.217590,277.674469 243.875519,275.956146 
	C244.664841,274.995117 245.411133,274.389160 246.414383,273.648560 
z"/>
<path fill="#1D9A95" opacity="1.000000" stroke="none" 
	d="
M177.183380,160.000275 
	C181.509155,161.570557 186.355225,162.181458 189.180237,164.895798 
	C206.711105,181.739868 223.891769,198.954163 240.958420,216.272461 
	C246.706375,222.105148 246.534897,231.460922 241.322128,236.652832 
	C236.004547,241.949127 227.344498,242.426743 221.425400,236.674088 
	C203.634552,219.383514 185.878281,202.032639 168.766205,184.078461 
	C159.718704,174.585724 164.142883,162.676941 177.183380,160.000275 
z"/>
<path fill="#1D9A95" opacity="1.000000" stroke="none" 
	d="
M323.280273,119.889610 
	C323.259064,117.083908 323.316284,114.097176 323.912079,111.222031 
	C325.668213,102.747337 331.628235,98.574982 340.741058,99.602188 
	C338.504486,103.567345 336.253052,107.625748 333.273315,111.050537 
	C330.447266,114.298744 326.858276,116.883224 323.280273,119.889610 
z"/>
</svg>